<mxfile host="app.diagrams.net" modified="2022-02-06T16:19:44.050Z" agent="5.0 (X11)" etag="_VDluBee1OL4W6uq9zBi" version="16.5.3" type="github">
  <diagram id="vgisI2ooYQM5d80KD6zA" name="Page-1">
    <mxGraphModel dx="2321" dy="1934" grid="1" gridSize="10" guides="1" tooltips="1" connect="1" arrows="1" fold="1" page="1" pageScale="1" pageWidth="850" pageHeight="1100" math="0" shadow="0">
      <root>
        <mxCell id="0" />
        <mxCell id="1" parent="0" />
        <mxCell id="1cKoUGkLe3tbQsXoUSwH-134" value="" style="rounded=0;whiteSpace=wrap;html=1;fontSize=10;fontColor=#3333FF;" vertex="1" parent="1">
          <mxGeometry x="-11.5" y="-20" width="850" height="708" as="geometry" />
        </mxCell>
        <mxCell id="1cKoUGkLe3tbQsXoUSwH-1" value="" style="shape=internalStorage;whiteSpace=wrap;html=1;backgroundOutline=1;" vertex="1" parent="1">
          <mxGeometry x="63" y="352" width="200" height="150" as="geometry" />
        </mxCell>
        <mxCell id="1cKoUGkLe3tbQsXoUSwH-2" value="user" style="text;html=1;strokeColor=none;fillColor=none;align=center;verticalAlign=middle;whiteSpace=wrap;rounded=0;" vertex="1" parent="1">
          <mxGeometry x="83" y="352" width="180" height="20" as="geometry" />
        </mxCell>
        <mxCell id="1cKoUGkLe3tbQsXoUSwH-3" value="&lt;font style=&quot;font-size: 10px&quot; color=&quot;#FF3333&quot;&gt;id&lt;/font&gt;" style="text;html=1;align=left;verticalAlign=middle;whiteSpace=wrap;rounded=0;" vertex="1" parent="1">
          <mxGeometry x="93" y="372" width="110" height="20" as="geometry" />
        </mxCell>
        <mxCell id="1cKoUGkLe3tbQsXoUSwH-5" value="" style="endArrow=none;html=1;rounded=0;entryX=1;entryY=0;entryDx=0;entryDy=0;exitX=0.7;exitY=1;exitDx=0;exitDy=0;exitPerimeter=0;" edge="1" parent="1" source="1cKoUGkLe3tbQsXoUSwH-1" target="1cKoUGkLe3tbQsXoUSwH-3">
          <mxGeometry width="50" height="50" relative="1" as="geometry">
            <mxPoint x="173" y="422" as="sourcePoint" />
            <mxPoint x="223" y="372" as="targetPoint" />
          </mxGeometry>
        </mxCell>
        <mxCell id="1cKoUGkLe3tbQsXoUSwH-6" value="&lt;div style=&quot;font-size: 10px&quot; align=&quot;center&quot;&gt;&lt;font style=&quot;font-size: 10px&quot; color=&quot;#FF3333&quot;&gt;int&lt;/font&gt;&lt;/div&gt;" style="text;html=1;align=center;verticalAlign=middle;whiteSpace=wrap;rounded=0;" vertex="1" parent="1">
          <mxGeometry x="203" y="372" width="60" height="20" as="geometry" />
        </mxCell>
        <mxCell id="1cKoUGkLe3tbQsXoUSwH-7" value="&lt;font style=&quot;font-size: 10px&quot; color=&quot;#FF3333&quot;&gt;PK&lt;/font&gt;" style="text;html=1;align=left;verticalAlign=middle;whiteSpace=wrap;rounded=0;" vertex="1" parent="1">
          <mxGeometry x="63" y="372" width="20" height="20" as="geometry" />
        </mxCell>
        <mxCell id="1cKoUGkLe3tbQsXoUSwH-8" value="&lt;font style=&quot;font-size: 10px&quot;&gt;name&lt;/font&gt;" style="text;html=1;align=left;verticalAlign=middle;whiteSpace=wrap;rounded=0;" vertex="1" parent="1">
          <mxGeometry x="93" y="392" width="110" height="20" as="geometry" />
        </mxCell>
        <mxCell id="1cKoUGkLe3tbQsXoUSwH-9" value="&lt;font style=&quot;font-size: 10px&quot;&gt;string&lt;/font&gt;" style="text;html=1;align=center;verticalAlign=middle;whiteSpace=wrap;rounded=0;" vertex="1" parent="1">
          <mxGeometry x="203" y="392" width="60" height="20" as="geometry" />
        </mxCell>
        <mxCell id="1cKoUGkLe3tbQsXoUSwH-10" value="&lt;font style=&quot;font-size: 10px&quot;&gt;phone&lt;/font&gt;" style="text;html=1;align=left;verticalAlign=middle;whiteSpace=wrap;rounded=0;" vertex="1" parent="1">
          <mxGeometry x="93" y="412" width="110" height="20" as="geometry" />
        </mxCell>
        <mxCell id="1cKoUGkLe3tbQsXoUSwH-11" value="&lt;font style=&quot;font-size: 10px&quot;&gt;string&lt;/font&gt;" style="text;html=1;align=center;verticalAlign=middle;whiteSpace=wrap;rounded=0;" vertex="1" parent="1">
          <mxGeometry x="203" y="412" width="60" height="20" as="geometry" />
        </mxCell>
        <mxCell id="1cKoUGkLe3tbQsXoUSwH-12" value="&lt;font style=&quot;font-size: 10px&quot; color=&quot;#3333FF&quot;&gt;role_id&lt;/font&gt;" style="text;html=1;align=left;verticalAlign=middle;whiteSpace=wrap;rounded=0;" vertex="1" parent="1">
          <mxGeometry x="93" y="472" width="110" height="20" as="geometry" />
        </mxCell>
        <mxCell id="1cKoUGkLe3tbQsXoUSwH-13" value="&lt;font style=&quot;font-size: 10px&quot; color=&quot;#3333FF&quot;&gt;int&lt;/font&gt;" style="text;html=1;align=center;verticalAlign=middle;whiteSpace=wrap;rounded=0;" vertex="1" parent="1">
          <mxGeometry x="203" y="472" width="60" height="20" as="geometry" />
        </mxCell>
        <mxCell id="1cKoUGkLe3tbQsXoUSwH-14" value="" style="shape=internalStorage;whiteSpace=wrap;html=1;backgroundOutline=1;" vertex="1" parent="1">
          <mxGeometry x="343" y="352" width="200" height="170" as="geometry" />
        </mxCell>
        <mxCell id="1cKoUGkLe3tbQsXoUSwH-15" value="measurement" style="text;html=1;strokeColor=none;fillColor=none;align=center;verticalAlign=middle;whiteSpace=wrap;rounded=0;" vertex="1" parent="1">
          <mxGeometry x="363" y="352" width="180" height="20" as="geometry" />
        </mxCell>
        <mxCell id="1cKoUGkLe3tbQsXoUSwH-16" value="&lt;font style=&quot;font-size: 10px&quot; color=&quot;#FF3333&quot;&gt;id&lt;/font&gt;" style="text;html=1;align=left;verticalAlign=middle;whiteSpace=wrap;rounded=0;" vertex="1" parent="1">
          <mxGeometry x="373" y="372" width="110" height="20" as="geometry" />
        </mxCell>
        <mxCell id="1cKoUGkLe3tbQsXoUSwH-17" value="" style="endArrow=none;html=1;rounded=0;entryX=1;entryY=0;entryDx=0;entryDy=0;exitX=0.7;exitY=1;exitDx=0;exitDy=0;exitPerimeter=0;" edge="1" parent="1" source="1cKoUGkLe3tbQsXoUSwH-14" target="1cKoUGkLe3tbQsXoUSwH-16">
          <mxGeometry width="50" height="50" relative="1" as="geometry">
            <mxPoint x="453" y="422" as="sourcePoint" />
            <mxPoint x="503" y="372" as="targetPoint" />
          </mxGeometry>
        </mxCell>
        <mxCell id="1cKoUGkLe3tbQsXoUSwH-18" value="&lt;div style=&quot;font-size: 10px&quot; align=&quot;center&quot;&gt;&lt;font style=&quot;font-size: 10px&quot; color=&quot;#FF3333&quot;&gt;int&lt;/font&gt;&lt;/div&gt;" style="text;html=1;align=center;verticalAlign=middle;whiteSpace=wrap;rounded=0;" vertex="1" parent="1">
          <mxGeometry x="483" y="372" width="60" height="20" as="geometry" />
        </mxCell>
        <mxCell id="1cKoUGkLe3tbQsXoUSwH-19" value="&lt;font style=&quot;font-size: 10px&quot; color=&quot;#FF3333&quot;&gt;PK&lt;/font&gt;" style="text;html=1;align=left;verticalAlign=middle;whiteSpace=wrap;rounded=0;" vertex="1" parent="1">
          <mxGeometry x="343" y="372" width="20" height="20" as="geometry" />
        </mxCell>
        <mxCell id="1cKoUGkLe3tbQsXoUSwH-20" value="&lt;font style=&quot;font-size: 10px&quot;&gt;inch&lt;/font&gt;" style="text;html=1;align=left;verticalAlign=middle;whiteSpace=wrap;rounded=0;" vertex="1" parent="1">
          <mxGeometry x="373" y="392" width="110" height="20" as="geometry" />
        </mxCell>
        <mxCell id="1cKoUGkLe3tbQsXoUSwH-21" value="&lt;font style=&quot;font-size: 10px&quot;&gt;int&lt;/font&gt;" style="text;html=1;align=center;verticalAlign=middle;whiteSpace=wrap;rounded=0;" vertex="1" parent="1">
          <mxGeometry x="483" y="392" width="60" height="20" as="geometry" />
        </mxCell>
        <mxCell id="1cKoUGkLe3tbQsXoUSwH-22" value="&lt;div style=&quot;font-size: 10px&quot;&gt;&lt;font style=&quot;font-size: 10px&quot;&gt;one_eighth&lt;/font&gt;&lt;/div&gt;" style="text;html=1;align=left;verticalAlign=middle;whiteSpace=wrap;rounded=0;" vertex="1" parent="1">
          <mxGeometry x="373" y="412" width="110" height="20" as="geometry" />
        </mxCell>
        <mxCell id="1cKoUGkLe3tbQsXoUSwH-23" value="&lt;font style=&quot;font-size: 10px&quot;&gt;int&lt;/font&gt;" style="text;html=1;align=center;verticalAlign=middle;whiteSpace=wrap;rounded=0;" vertex="1" parent="1">
          <mxGeometry x="483" y="412" width="60" height="20" as="geometry" />
        </mxCell>
        <mxCell id="1cKoUGkLe3tbQsXoUSwH-24" value="&lt;font style=&quot;font-size: 10px&quot; color=&quot;#3333FF&quot;&gt;user_id&lt;/font&gt;" style="text;html=1;align=left;verticalAlign=middle;whiteSpace=wrap;rounded=0;" vertex="1" parent="1">
          <mxGeometry x="373" y="472" width="110" height="20" as="geometry" />
        </mxCell>
        <mxCell id="1cKoUGkLe3tbQsXoUSwH-25" value="&lt;font style=&quot;font-size: 10px&quot; color=&quot;#3333FF&quot;&gt;int&lt;/font&gt;" style="text;html=1;align=center;verticalAlign=middle;whiteSpace=wrap;rounded=0;" vertex="1" parent="1">
          <mxGeometry x="483" y="472" width="60" height="20" as="geometry" />
        </mxCell>
        <mxCell id="1cKoUGkLe3tbQsXoUSwH-26" value="&lt;font style=&quot;font-size: 10px&quot; color=&quot;#3333FF&quot;&gt;position_id&lt;/font&gt;" style="text;html=1;align=left;verticalAlign=middle;whiteSpace=wrap;rounded=0;" vertex="1" parent="1">
          <mxGeometry x="373" y="492" width="110" height="20" as="geometry" />
        </mxCell>
        <mxCell id="1cKoUGkLe3tbQsXoUSwH-27" value="&lt;font style=&quot;font-size: 10px&quot; color=&quot;#3333FF&quot;&gt;int&lt;/font&gt;" style="text;html=1;align=center;verticalAlign=middle;whiteSpace=wrap;rounded=0;" vertex="1" parent="1">
          <mxGeometry x="483" y="492" width="60" height="20" as="geometry" />
        </mxCell>
        <mxCell id="1cKoUGkLe3tbQsXoUSwH-28" style="edgeStyle=orthogonalEdgeStyle;rounded=0;orthogonalLoop=1;jettySize=auto;html=1;exitX=0.5;exitY=1;exitDx=0;exitDy=0;fontSize=10;fontColor=#000000;" edge="1" parent="1" source="1cKoUGkLe3tbQsXoUSwH-1" target="1cKoUGkLe3tbQsXoUSwH-1">
          <mxGeometry relative="1" as="geometry" />
        </mxCell>
        <mxCell id="1cKoUGkLe3tbQsXoUSwH-29" value="" style="shape=internalStorage;whiteSpace=wrap;html=1;backgroundOutline=1;" vertex="1" parent="1">
          <mxGeometry x="623" y="352" width="200" height="110" as="geometry" />
        </mxCell>
        <mxCell id="1cKoUGkLe3tbQsXoUSwH-30" value="position" style="text;html=1;strokeColor=none;fillColor=none;align=center;verticalAlign=middle;whiteSpace=wrap;rounded=0;" vertex="1" parent="1">
          <mxGeometry x="643" y="352" width="180" height="20" as="geometry" />
        </mxCell>
        <mxCell id="1cKoUGkLe3tbQsXoUSwH-31" value="&lt;font style=&quot;font-size: 10px&quot; color=&quot;#FF3333&quot;&gt;id&lt;/font&gt;" style="text;html=1;align=left;verticalAlign=middle;whiteSpace=wrap;rounded=0;" vertex="1" parent="1">
          <mxGeometry x="653" y="372" width="110" height="20" as="geometry" />
        </mxCell>
        <mxCell id="1cKoUGkLe3tbQsXoUSwH-32" value="" style="endArrow=none;html=1;rounded=0;entryX=1;entryY=0;entryDx=0;entryDy=0;exitX=0.7;exitY=1;exitDx=0;exitDy=0;exitPerimeter=0;" edge="1" parent="1" source="1cKoUGkLe3tbQsXoUSwH-29" target="1cKoUGkLe3tbQsXoUSwH-31">
          <mxGeometry width="50" height="50" relative="1" as="geometry">
            <mxPoint x="733" y="422" as="sourcePoint" />
            <mxPoint x="783" y="372" as="targetPoint" />
          </mxGeometry>
        </mxCell>
        <mxCell id="1cKoUGkLe3tbQsXoUSwH-33" value="&lt;div style=&quot;font-size: 10px&quot; align=&quot;center&quot;&gt;&lt;font style=&quot;font-size: 10px&quot; color=&quot;#FF3333&quot;&gt;int&lt;/font&gt;&lt;/div&gt;" style="text;html=1;align=center;verticalAlign=middle;whiteSpace=wrap;rounded=0;" vertex="1" parent="1">
          <mxGeometry x="763" y="372" width="60" height="20" as="geometry" />
        </mxCell>
        <mxCell id="1cKoUGkLe3tbQsXoUSwH-34" value="&lt;font style=&quot;font-size: 10px&quot; color=&quot;#FF3333&quot;&gt;PK&lt;/font&gt;" style="text;html=1;align=left;verticalAlign=middle;whiteSpace=wrap;rounded=0;" vertex="1" parent="1">
          <mxGeometry x="623" y="372" width="20" height="20" as="geometry" />
        </mxCell>
        <mxCell id="1cKoUGkLe3tbQsXoUSwH-35" value="&lt;font style=&quot;font-size: 10px&quot;&gt;name&lt;/font&gt;" style="text;html=1;align=left;verticalAlign=middle;whiteSpace=wrap;rounded=0;" vertex="1" parent="1">
          <mxGeometry x="653" y="392" width="110" height="20" as="geometry" />
        </mxCell>
        <mxCell id="1cKoUGkLe3tbQsXoUSwH-36" value="&lt;font style=&quot;font-size: 10px&quot;&gt;string&lt;/font&gt;" style="text;html=1;align=center;verticalAlign=middle;whiteSpace=wrap;rounded=0;" vertex="1" parent="1">
          <mxGeometry x="763" y="392" width="60" height="20" as="geometry" />
        </mxCell>
        <mxCell id="1cKoUGkLe3tbQsXoUSwH-43" style="edgeStyle=orthogonalEdgeStyle;rounded=0;orthogonalLoop=1;jettySize=auto;html=1;exitX=0.5;exitY=1;exitDx=0;exitDy=0;fontSize=10;fontColor=#000000;" edge="1" parent="1" source="1cKoUGkLe3tbQsXoUSwH-29" target="1cKoUGkLe3tbQsXoUSwH-29">
          <mxGeometry relative="1" as="geometry" />
        </mxCell>
        <mxCell id="1cKoUGkLe3tbQsXoUSwH-44" value="" style="edgeStyle=entityRelationEdgeStyle;fontSize=12;html=1;endArrow=ERoneToMany;rounded=0;fontColor=#000000;entryX=0;entryY=0.5;entryDx=0;entryDy=0;exitX=1;exitY=0.5;exitDx=0;exitDy=0;" edge="1" parent="1" source="1cKoUGkLe3tbQsXoUSwH-6" target="1cKoUGkLe3tbQsXoUSwH-63">
          <mxGeometry width="100" height="100" relative="1" as="geometry">
            <mxPoint x="263" y="425" as="sourcePoint" />
            <mxPoint x="343" y="425" as="targetPoint" />
          </mxGeometry>
        </mxCell>
        <mxCell id="1cKoUGkLe3tbQsXoUSwH-47" value="" style="edgeStyle=entityRelationEdgeStyle;fontSize=12;html=1;endArrow=ERmany;startArrow=ERmany;rounded=0;fontColor=#000000;entryX=0;entryY=0.5;entryDx=0;entryDy=0;exitX=1;exitY=0.5;exitDx=0;exitDy=0;" edge="1" parent="1" source="1cKoUGkLe3tbQsXoUSwH-27" target="1cKoUGkLe3tbQsXoUSwH-34">
          <mxGeometry width="100" height="100" relative="1" as="geometry">
            <mxPoint x="543" y="437" as="sourcePoint" />
            <mxPoint x="643" y="337" as="targetPoint" />
          </mxGeometry>
        </mxCell>
        <mxCell id="1cKoUGkLe3tbQsXoUSwH-48" value="" style="shape=internalStorage;whiteSpace=wrap;html=1;backgroundOutline=1;" vertex="1" parent="1">
          <mxGeometry x="63" y="542" width="200" height="110" as="geometry" />
        </mxCell>
        <mxCell id="1cKoUGkLe3tbQsXoUSwH-49" value="role" style="text;html=1;strokeColor=none;fillColor=none;align=center;verticalAlign=middle;whiteSpace=wrap;rounded=0;" vertex="1" parent="1">
          <mxGeometry x="83" y="542" width="180" height="20" as="geometry" />
        </mxCell>
        <mxCell id="1cKoUGkLe3tbQsXoUSwH-50" value="&lt;font style=&quot;font-size: 10px&quot; color=&quot;#FF3333&quot;&gt;id&lt;/font&gt;" style="text;html=1;align=left;verticalAlign=middle;whiteSpace=wrap;rounded=0;" vertex="1" parent="1">
          <mxGeometry x="93" y="562" width="110" height="20" as="geometry" />
        </mxCell>
        <mxCell id="1cKoUGkLe3tbQsXoUSwH-51" value="" style="endArrow=none;html=1;rounded=0;entryX=1;entryY=0;entryDx=0;entryDy=0;exitX=0.7;exitY=1;exitDx=0;exitDy=0;exitPerimeter=0;" edge="1" parent="1" source="1cKoUGkLe3tbQsXoUSwH-48" target="1cKoUGkLe3tbQsXoUSwH-50">
          <mxGeometry width="50" height="50" relative="1" as="geometry">
            <mxPoint x="173" y="612" as="sourcePoint" />
            <mxPoint x="223" y="562" as="targetPoint" />
          </mxGeometry>
        </mxCell>
        <mxCell id="1cKoUGkLe3tbQsXoUSwH-52" value="&lt;div style=&quot;font-size: 10px&quot; align=&quot;center&quot;&gt;&lt;font style=&quot;font-size: 10px&quot; color=&quot;#FF3333&quot;&gt;int&lt;/font&gt;&lt;/div&gt;" style="text;html=1;align=center;verticalAlign=middle;whiteSpace=wrap;rounded=0;" vertex="1" parent="1">
          <mxGeometry x="203" y="562" width="60" height="20" as="geometry" />
        </mxCell>
        <mxCell id="1cKoUGkLe3tbQsXoUSwH-53" value="&lt;font style=&quot;font-size: 10px&quot; color=&quot;#FF3333&quot;&gt;PK&lt;/font&gt;" style="text;html=1;align=left;verticalAlign=middle;whiteSpace=wrap;rounded=0;" vertex="1" parent="1">
          <mxGeometry x="63" y="562" width="20" height="20" as="geometry" />
        </mxCell>
        <mxCell id="1cKoUGkLe3tbQsXoUSwH-54" value="&lt;font style=&quot;font-size: 10px&quot;&gt;name&lt;/font&gt;" style="text;html=1;align=left;verticalAlign=middle;whiteSpace=wrap;rounded=0;" vertex="1" parent="1">
          <mxGeometry x="93" y="582" width="110" height="20" as="geometry" />
        </mxCell>
        <mxCell id="1cKoUGkLe3tbQsXoUSwH-55" value="&lt;font style=&quot;font-size: 10px&quot;&gt;string&lt;/font&gt;" style="text;html=1;align=center;verticalAlign=middle;whiteSpace=wrap;rounded=0;" vertex="1" parent="1">
          <mxGeometry x="203" y="582" width="60" height="20" as="geometry" />
        </mxCell>
        <mxCell id="1cKoUGkLe3tbQsXoUSwH-56" value="&lt;font style=&quot;font-size: 10px&quot;&gt;created_at&lt;/font&gt;" style="text;html=1;align=left;verticalAlign=middle;whiteSpace=wrap;rounded=0;" vertex="1" parent="1">
          <mxGeometry x="93" y="602" width="110" height="20" as="geometry" />
        </mxCell>
        <mxCell id="1cKoUGkLe3tbQsXoUSwH-57" value="&lt;font style=&quot;font-size: 10px&quot;&gt;timestamp&lt;/font&gt;" style="text;html=1;align=center;verticalAlign=middle;whiteSpace=wrap;rounded=0;" vertex="1" parent="1">
          <mxGeometry x="203" y="602" width="60" height="20" as="geometry" />
        </mxCell>
        <mxCell id="1cKoUGkLe3tbQsXoUSwH-60" style="edgeStyle=orthogonalEdgeStyle;rounded=0;orthogonalLoop=1;jettySize=auto;html=1;exitX=0.5;exitY=1;exitDx=0;exitDy=0;fontSize=10;fontColor=#000000;" edge="1" parent="1" source="1cKoUGkLe3tbQsXoUSwH-48" target="1cKoUGkLe3tbQsXoUSwH-48">
          <mxGeometry relative="1" as="geometry" />
        </mxCell>
        <mxCell id="1cKoUGkLe3tbQsXoUSwH-62" value="&lt;font style=&quot;font-size: 10px&quot; color=&quot;#3333FF&quot;&gt;FK&lt;/font&gt;" style="text;html=1;align=left;verticalAlign=middle;whiteSpace=wrap;rounded=0;" vertex="1" parent="1">
          <mxGeometry x="63" y="472" width="20" height="20" as="geometry" />
        </mxCell>
        <mxCell id="1cKoUGkLe3tbQsXoUSwH-63" value="&lt;font style=&quot;font-size: 10px&quot; color=&quot;#3333FF&quot;&gt;FK&lt;/font&gt;" style="text;html=1;align=left;verticalAlign=middle;whiteSpace=wrap;rounded=0;" vertex="1" parent="1">
          <mxGeometry x="343" y="472" width="20" height="20" as="geometry" />
        </mxCell>
        <mxCell id="1cKoUGkLe3tbQsXoUSwH-64" value="&lt;font style=&quot;font-size: 10px&quot; color=&quot;#3333FF&quot;&gt;FK&lt;/font&gt;" style="text;html=1;align=left;verticalAlign=middle;whiteSpace=wrap;rounded=0;" vertex="1" parent="1">
          <mxGeometry x="343" y="492" width="20" height="20" as="geometry" />
        </mxCell>
        <mxCell id="1cKoUGkLe3tbQsXoUSwH-65" value="" style="fontSize=12;html=1;endArrow=ERmandOne;startArrow=ERmandOne;rounded=0;fontColor=#3333FF;entryX=0;entryY=0.5;entryDx=0;entryDy=0;strokeColor=default;edgeStyle=orthogonalEdgeStyle;" edge="1" parent="1" target="1cKoUGkLe3tbQsXoUSwH-53">
          <mxGeometry width="100" height="100" relative="1" as="geometry">
            <mxPoint x="63" y="482" as="sourcePoint" />
            <mxPoint x="-27" y="189" as="targetPoint" />
            <Array as="points">
              <mxPoint x="33" y="482" />
              <mxPoint x="33" y="572" />
            </Array>
          </mxGeometry>
        </mxCell>
        <mxCell id="1cKoUGkLe3tbQsXoUSwH-68" value="&lt;font style=&quot;font-size: 10px&quot;&gt;updated_at&lt;/font&gt;" style="text;html=1;align=left;verticalAlign=middle;whiteSpace=wrap;rounded=0;" vertex="1" parent="1">
          <mxGeometry x="93" y="622" width="110" height="20" as="geometry" />
        </mxCell>
        <mxCell id="1cKoUGkLe3tbQsXoUSwH-69" value="&lt;font style=&quot;font-size: 10px&quot;&gt;timestamp&lt;/font&gt;" style="text;html=1;align=center;verticalAlign=middle;whiteSpace=wrap;rounded=0;" vertex="1" parent="1">
          <mxGeometry x="203" y="622" width="60" height="20" as="geometry" />
        </mxCell>
        <mxCell id="1cKoUGkLe3tbQsXoUSwH-71" value="&lt;font style=&quot;font-size: 10px&quot;&gt;created_at&lt;/font&gt;" style="text;html=1;align=left;verticalAlign=middle;whiteSpace=wrap;rounded=0;" vertex="1" parent="1">
          <mxGeometry x="93" y="432" width="110" height="20" as="geometry" />
        </mxCell>
        <mxCell id="1cKoUGkLe3tbQsXoUSwH-72" value="&lt;font style=&quot;font-size: 10px&quot;&gt;timestamp&lt;/font&gt;" style="text;html=1;align=center;verticalAlign=middle;whiteSpace=wrap;rounded=0;" vertex="1" parent="1">
          <mxGeometry x="203" y="432" width="60" height="20" as="geometry" />
        </mxCell>
        <mxCell id="1cKoUGkLe3tbQsXoUSwH-73" value="&lt;font style=&quot;font-size: 10px&quot;&gt;updated_at&lt;/font&gt;" style="text;html=1;align=left;verticalAlign=middle;whiteSpace=wrap;rounded=0;" vertex="1" parent="1">
          <mxGeometry x="93" y="452" width="110" height="20" as="geometry" />
        </mxCell>
        <mxCell id="1cKoUGkLe3tbQsXoUSwH-74" value="&lt;font style=&quot;font-size: 10px&quot;&gt;timestamp&lt;/font&gt;" style="text;html=1;align=center;verticalAlign=middle;whiteSpace=wrap;rounded=0;" vertex="1" parent="1">
          <mxGeometry x="203" y="452" width="60" height="20" as="geometry" />
        </mxCell>
        <mxCell id="1cKoUGkLe3tbQsXoUSwH-75" value="&lt;font style=&quot;font-size: 10px&quot;&gt;created_at&lt;/font&gt;" style="text;html=1;align=left;verticalAlign=middle;whiteSpace=wrap;rounded=0;" vertex="1" parent="1">
          <mxGeometry x="373" y="432" width="110" height="20" as="geometry" />
        </mxCell>
        <mxCell id="1cKoUGkLe3tbQsXoUSwH-76" value="&lt;font style=&quot;font-size: 10px&quot;&gt;timestamp&lt;/font&gt;" style="text;html=1;align=center;verticalAlign=middle;whiteSpace=wrap;rounded=0;" vertex="1" parent="1">
          <mxGeometry x="483" y="432" width="60" height="20" as="geometry" />
        </mxCell>
        <mxCell id="1cKoUGkLe3tbQsXoUSwH-77" value="&lt;font style=&quot;font-size: 10px&quot;&gt;updated_at&lt;/font&gt;" style="text;html=1;align=left;verticalAlign=middle;whiteSpace=wrap;rounded=0;" vertex="1" parent="1">
          <mxGeometry x="373" y="452" width="110" height="20" as="geometry" />
        </mxCell>
        <mxCell id="1cKoUGkLe3tbQsXoUSwH-78" value="&lt;font style=&quot;font-size: 10px&quot;&gt;timestamp&lt;/font&gt;" style="text;html=1;align=center;verticalAlign=middle;whiteSpace=wrap;rounded=0;" vertex="1" parent="1">
          <mxGeometry x="483" y="452" width="60" height="20" as="geometry" />
        </mxCell>
        <mxCell id="1cKoUGkLe3tbQsXoUSwH-79" value="&lt;font style=&quot;font-size: 10px&quot;&gt;created_at&lt;/font&gt;" style="text;html=1;align=left;verticalAlign=middle;whiteSpace=wrap;rounded=0;" vertex="1" parent="1">
          <mxGeometry x="653" y="412" width="110" height="20" as="geometry" />
        </mxCell>
        <mxCell id="1cKoUGkLe3tbQsXoUSwH-80" value="&lt;font style=&quot;font-size: 10px&quot;&gt;timestamp&lt;/font&gt;" style="text;html=1;align=center;verticalAlign=middle;whiteSpace=wrap;rounded=0;" vertex="1" parent="1">
          <mxGeometry x="763" y="412" width="60" height="20" as="geometry" />
        </mxCell>
        <mxCell id="1cKoUGkLe3tbQsXoUSwH-81" value="&lt;font style=&quot;font-size: 10px&quot;&gt;updated_at&lt;/font&gt;" style="text;html=1;align=left;verticalAlign=middle;whiteSpace=wrap;rounded=0;" vertex="1" parent="1">
          <mxGeometry x="653" y="432" width="110" height="20" as="geometry" />
        </mxCell>
        <mxCell id="1cKoUGkLe3tbQsXoUSwH-82" value="&lt;font style=&quot;font-size: 10px&quot;&gt;timestamp&lt;/font&gt;" style="text;html=1;align=center;verticalAlign=middle;whiteSpace=wrap;rounded=0;" vertex="1" parent="1">
          <mxGeometry x="763" y="432" width="60" height="20" as="geometry" />
        </mxCell>
        <mxCell id="1cKoUGkLe3tbQsXoUSwH-83" value="&amp;nbsp;" style="text;whiteSpace=wrap;html=1;fontSize=10;fontColor=#3333FF;" vertex="1" parent="1">
          <mxGeometry x="103" y="582" width="30" height="30" as="geometry" />
        </mxCell>
        <mxCell id="1cKoUGkLe3tbQsXoUSwH-84" value="" style="shape=internalStorage;whiteSpace=wrap;html=1;backgroundOutline=1;" vertex="1" parent="1">
          <mxGeometry x="63" y="40" width="200" height="270" as="geometry" />
        </mxCell>
        <mxCell id="1cKoUGkLe3tbQsXoUSwH-85" value="order" style="text;html=1;strokeColor=none;fillColor=none;align=center;verticalAlign=middle;whiteSpace=wrap;rounded=0;" vertex="1" parent="1">
          <mxGeometry x="83" y="40.00000000000001" width="180" height="20" as="geometry" />
        </mxCell>
        <mxCell id="1cKoUGkLe3tbQsXoUSwH-86" value="&lt;font style=&quot;font-size: 10px&quot; color=&quot;#FF3333&quot;&gt;id&lt;/font&gt;" style="text;html=1;align=left;verticalAlign=middle;whiteSpace=wrap;rounded=0;" vertex="1" parent="1">
          <mxGeometry x="93" y="60.00000000000001" width="110" height="20" as="geometry" />
        </mxCell>
        <mxCell id="1cKoUGkLe3tbQsXoUSwH-87" value="" style="endArrow=none;html=1;rounded=0;entryX=1;entryY=0;entryDx=0;entryDy=0;exitX=0.7;exitY=1;exitDx=0;exitDy=0;exitPerimeter=0;" edge="1" parent="1" source="1cKoUGkLe3tbQsXoUSwH-84" target="1cKoUGkLe3tbQsXoUSwH-86">
          <mxGeometry width="50" height="50" relative="1" as="geometry">
            <mxPoint x="173" y="110" as="sourcePoint" />
            <mxPoint x="223" y="60.00000000000001" as="targetPoint" />
          </mxGeometry>
        </mxCell>
        <mxCell id="1cKoUGkLe3tbQsXoUSwH-88" value="&lt;div style=&quot;font-size: 10px&quot; align=&quot;center&quot;&gt;&lt;font style=&quot;font-size: 10px&quot; color=&quot;#FF3333&quot;&gt;int&lt;/font&gt;&lt;/div&gt;" style="text;html=1;align=center;verticalAlign=middle;whiteSpace=wrap;rounded=0;" vertex="1" parent="1">
          <mxGeometry x="203" y="60.00000000000001" width="60" height="20" as="geometry" />
        </mxCell>
        <mxCell id="1cKoUGkLe3tbQsXoUSwH-89" value="&lt;font style=&quot;font-size: 10px&quot; color=&quot;#FF3333&quot;&gt;PK&lt;/font&gt;" style="text;html=1;align=left;verticalAlign=middle;whiteSpace=wrap;rounded=0;" vertex="1" parent="1">
          <mxGeometry x="63" y="60.00000000000001" width="20" height="20" as="geometry" />
        </mxCell>
        <mxCell id="1cKoUGkLe3tbQsXoUSwH-90" value="&lt;font style=&quot;font-size: 10px&quot;&gt;current_state&lt;/font&gt;" style="text;html=1;align=left;verticalAlign=middle;whiteSpace=wrap;rounded=0;" vertex="1" parent="1">
          <mxGeometry x="93" y="120" width="110" height="20" as="geometry" />
        </mxCell>
        <mxCell id="1cKoUGkLe3tbQsXoUSwH-91" value="&lt;font style=&quot;font-size: 10px&quot;&gt;string&lt;/font&gt;" style="text;html=1;align=center;verticalAlign=middle;whiteSpace=wrap;rounded=0;" vertex="1" parent="1">
          <mxGeometry x="203" y="120" width="60" height="20" as="geometry" />
        </mxCell>
        <mxCell id="1cKoUGkLe3tbQsXoUSwH-92" value="&lt;font style=&quot;font-size: 10px&quot;&gt;status&lt;/font&gt;" style="text;html=1;align=left;verticalAlign=middle;whiteSpace=wrap;rounded=0;" vertex="1" parent="1">
          <mxGeometry x="93" y="140" width="110" height="20" as="geometry" />
        </mxCell>
        <mxCell id="1cKoUGkLe3tbQsXoUSwH-93" value="&lt;font style=&quot;font-size: 10px&quot;&gt;int&lt;/font&gt;" style="text;html=1;align=center;verticalAlign=middle;whiteSpace=wrap;rounded=0;" vertex="1" parent="1">
          <mxGeometry x="203" y="140" width="60" height="20" as="geometry" />
        </mxCell>
        <mxCell id="1cKoUGkLe3tbQsXoUSwH-94" value="&lt;font style=&quot;font-size: 10px&quot; color=&quot;#3333FF&quot;&gt;user_id&lt;/font&gt;" style="text;html=1;align=left;verticalAlign=middle;whiteSpace=wrap;rounded=0;" vertex="1" parent="1">
          <mxGeometry x="93" y="240" width="110" height="20" as="geometry" />
        </mxCell>
        <mxCell id="1cKoUGkLe3tbQsXoUSwH-95" value="&lt;font style=&quot;font-size: 10px&quot; color=&quot;#3333FF&quot;&gt;int&lt;/font&gt;" style="text;html=1;align=center;verticalAlign=middle;whiteSpace=wrap;rounded=0;" vertex="1" parent="1">
          <mxGeometry x="203" y="240" width="60" height="20" as="geometry" />
        </mxCell>
        <mxCell id="1cKoUGkLe3tbQsXoUSwH-96" style="edgeStyle=orthogonalEdgeStyle;rounded=0;orthogonalLoop=1;jettySize=auto;html=1;exitX=0.5;exitY=1;exitDx=0;exitDy=0;fontSize=10;fontColor=#000000;" edge="1" parent="1" source="1cKoUGkLe3tbQsXoUSwH-84" target="1cKoUGkLe3tbQsXoUSwH-84">
          <mxGeometry relative="1" as="geometry" />
        </mxCell>
        <mxCell id="1cKoUGkLe3tbQsXoUSwH-97" value="&lt;font style=&quot;font-size: 10px&quot; color=&quot;#3333FF&quot;&gt;FK&lt;/font&gt;" style="text;html=1;align=left;verticalAlign=middle;whiteSpace=wrap;rounded=0;" vertex="1" parent="1">
          <mxGeometry x="63" y="240" width="20" height="20" as="geometry" />
        </mxCell>
        <mxCell id="1cKoUGkLe3tbQsXoUSwH-98" value="&lt;font style=&quot;font-size: 10px&quot;&gt;created_at&lt;/font&gt;" style="text;html=1;align=left;verticalAlign=middle;whiteSpace=wrap;rounded=0;" vertex="1" parent="1">
          <mxGeometry x="93" y="200" width="110" height="20" as="geometry" />
        </mxCell>
        <mxCell id="1cKoUGkLe3tbQsXoUSwH-99" value="&lt;font style=&quot;font-size: 10px&quot;&gt;timestamp&lt;/font&gt;" style="text;html=1;align=center;verticalAlign=middle;whiteSpace=wrap;rounded=0;" vertex="1" parent="1">
          <mxGeometry x="203" y="200" width="60" height="20" as="geometry" />
        </mxCell>
        <mxCell id="1cKoUGkLe3tbQsXoUSwH-100" value="&lt;font style=&quot;font-size: 10px&quot;&gt;updated_at&lt;/font&gt;" style="text;html=1;align=left;verticalAlign=middle;whiteSpace=wrap;rounded=0;" vertex="1" parent="1">
          <mxGeometry x="93" y="220" width="110" height="20" as="geometry" />
        </mxCell>
        <mxCell id="1cKoUGkLe3tbQsXoUSwH-101" value="&lt;font style=&quot;font-size: 10px&quot;&gt;timestamp&lt;/font&gt;" style="text;html=1;align=center;verticalAlign=middle;whiteSpace=wrap;rounded=0;" vertex="1" parent="1">
          <mxGeometry x="203" y="220" width="60" height="20" as="geometry" />
        </mxCell>
        <mxCell id="1cKoUGkLe3tbQsXoUSwH-102" value="&lt;font style=&quot;font-size: 10px&quot;&gt;raw_info&lt;/font&gt;" style="text;html=1;align=left;verticalAlign=middle;whiteSpace=wrap;rounded=0;" vertex="1" parent="1">
          <mxGeometry x="93" y="160" width="110" height="20" as="geometry" />
        </mxCell>
        <mxCell id="1cKoUGkLe3tbQsXoUSwH-103" value="&lt;font style=&quot;font-size: 10px&quot;&gt;string&lt;/font&gt;" style="text;html=1;align=center;verticalAlign=middle;whiteSpace=wrap;rounded=0;" vertex="1" parent="1">
          <mxGeometry x="203" y="160" width="60" height="20" as="geometry" />
        </mxCell>
        <mxCell id="1cKoUGkLe3tbQsXoUSwH-105" value="" style="shape=internalStorage;whiteSpace=wrap;html=1;backgroundOutline=1;" vertex="1" parent="1">
          <mxGeometry x="343" y="40" width="200" height="140" as="geometry" />
        </mxCell>
        <mxCell id="1cKoUGkLe3tbQsXoUSwH-106" value="order_detail" style="text;html=1;strokeColor=none;fillColor=none;align=center;verticalAlign=middle;whiteSpace=wrap;rounded=0;" vertex="1" parent="1">
          <mxGeometry x="363" y="39.99999999999999" width="180" height="20" as="geometry" />
        </mxCell>
        <mxCell id="1cKoUGkLe3tbQsXoUSwH-107" value="&lt;font style=&quot;font-size: 10px&quot; color=&quot;#FF3333&quot;&gt;id&lt;/font&gt;" style="text;html=1;align=left;verticalAlign=middle;whiteSpace=wrap;rounded=0;" vertex="1" parent="1">
          <mxGeometry x="373" y="59.99999999999999" width="110" height="20" as="geometry" />
        </mxCell>
        <mxCell id="1cKoUGkLe3tbQsXoUSwH-108" value="" style="endArrow=none;html=1;rounded=0;entryX=1;entryY=0;entryDx=0;entryDy=0;exitX=0.7;exitY=1;exitDx=0;exitDy=0;exitPerimeter=0;" edge="1" parent="1" source="1cKoUGkLe3tbQsXoUSwH-105" target="1cKoUGkLe3tbQsXoUSwH-107">
          <mxGeometry width="50" height="50" relative="1" as="geometry">
            <mxPoint x="453" y="110" as="sourcePoint" />
            <mxPoint x="503" y="59.99999999999999" as="targetPoint" />
          </mxGeometry>
        </mxCell>
        <mxCell id="1cKoUGkLe3tbQsXoUSwH-109" value="&lt;div style=&quot;font-size: 10px&quot; align=&quot;center&quot;&gt;&lt;font style=&quot;font-size: 10px&quot; color=&quot;#FF3333&quot;&gt;int&lt;/font&gt;&lt;/div&gt;" style="text;html=1;align=center;verticalAlign=middle;whiteSpace=wrap;rounded=0;" vertex="1" parent="1">
          <mxGeometry x="483" y="59.99999999999999" width="60" height="20" as="geometry" />
        </mxCell>
        <mxCell id="1cKoUGkLe3tbQsXoUSwH-110" value="&lt;font style=&quot;font-size: 10px&quot; color=&quot;#FF3333&quot;&gt;PK&lt;/font&gt;" style="text;html=1;align=left;verticalAlign=middle;whiteSpace=wrap;rounded=0;" vertex="1" parent="1">
          <mxGeometry x="343" y="59.99999999999999" width="20" height="20" as="geometry" />
        </mxCell>
        <mxCell id="1cKoUGkLe3tbQsXoUSwH-111" value="&lt;font style=&quot;font-size: 10px&quot;&gt;subtitle&lt;/font&gt;" style="text;html=1;align=left;verticalAlign=middle;whiteSpace=wrap;rounded=0;" vertex="1" parent="1">
          <mxGeometry x="373" y="80" width="110" height="20" as="geometry" />
        </mxCell>
        <mxCell id="1cKoUGkLe3tbQsXoUSwH-112" value="&lt;font style=&quot;font-size: 10px&quot;&gt;string&lt;/font&gt;" style="text;html=1;align=center;verticalAlign=middle;whiteSpace=wrap;rounded=0;" vertex="1" parent="1">
          <mxGeometry x="483" y="80" width="60" height="20" as="geometry" />
        </mxCell>
        <mxCell id="1cKoUGkLe3tbQsXoUSwH-113" value="&lt;font style=&quot;font-size: 10px&quot;&gt;photo_url&lt;/font&gt;" style="text;html=1;align=left;verticalAlign=middle;whiteSpace=wrap;rounded=0;" vertex="1" parent="1">
          <mxGeometry x="373" y="100" width="110" height="20" as="geometry" />
        </mxCell>
        <mxCell id="1cKoUGkLe3tbQsXoUSwH-114" value="&lt;font style=&quot;font-size: 10px&quot;&gt;string&lt;/font&gt;" style="text;html=1;align=center;verticalAlign=middle;whiteSpace=wrap;rounded=0;" vertex="1" parent="1">
          <mxGeometry x="483" y="100" width="60" height="20" as="geometry" />
        </mxCell>
        <mxCell id="1cKoUGkLe3tbQsXoUSwH-115" value="&lt;font style=&quot;font-size: 10px&quot; color=&quot;#3333FF&quot;&gt;order_id&lt;/font&gt;" style="text;html=1;align=left;verticalAlign=middle;whiteSpace=wrap;rounded=0;" vertex="1" parent="1">
          <mxGeometry x="373" y="160" width="110" height="20" as="geometry" />
        </mxCell>
        <mxCell id="1cKoUGkLe3tbQsXoUSwH-116" value="&lt;font style=&quot;font-size: 10px&quot; color=&quot;#3333FF&quot;&gt;int&lt;/font&gt;" style="text;html=1;align=center;verticalAlign=middle;whiteSpace=wrap;rounded=0;" vertex="1" parent="1">
          <mxGeometry x="483" y="160" width="60" height="20" as="geometry" />
        </mxCell>
        <mxCell id="1cKoUGkLe3tbQsXoUSwH-117" style="edgeStyle=orthogonalEdgeStyle;rounded=0;orthogonalLoop=1;jettySize=auto;html=1;exitX=0.5;exitY=1;exitDx=0;exitDy=0;fontSize=10;fontColor=#000000;" edge="1" parent="1" source="1cKoUGkLe3tbQsXoUSwH-105" target="1cKoUGkLe3tbQsXoUSwH-105">
          <mxGeometry relative="1" as="geometry" />
        </mxCell>
        <mxCell id="1cKoUGkLe3tbQsXoUSwH-118" value="&lt;font style=&quot;font-size: 10px&quot; color=&quot;#3333FF&quot;&gt;FK&lt;/font&gt;" style="text;html=1;align=left;verticalAlign=middle;whiteSpace=wrap;rounded=0;" vertex="1" parent="1">
          <mxGeometry x="343" y="160" width="20" height="20" as="geometry" />
        </mxCell>
        <mxCell id="1cKoUGkLe3tbQsXoUSwH-119" value="&lt;font style=&quot;font-size: 10px&quot;&gt;created_at&lt;/font&gt;" style="text;html=1;align=left;verticalAlign=middle;whiteSpace=wrap;rounded=0;" vertex="1" parent="1">
          <mxGeometry x="373" y="120" width="110" height="20" as="geometry" />
        </mxCell>
        <mxCell id="1cKoUGkLe3tbQsXoUSwH-120" value="&lt;font style=&quot;font-size: 10px&quot;&gt;timestamp&lt;/font&gt;" style="text;html=1;align=center;verticalAlign=middle;whiteSpace=wrap;rounded=0;" vertex="1" parent="1">
          <mxGeometry x="483" y="120" width="60" height="20" as="geometry" />
        </mxCell>
        <mxCell id="1cKoUGkLe3tbQsXoUSwH-121" value="&lt;font style=&quot;font-size: 10px&quot;&gt;updated_at&lt;/font&gt;" style="text;html=1;align=left;verticalAlign=middle;whiteSpace=wrap;rounded=0;" vertex="1" parent="1">
          <mxGeometry x="373" y="140" width="110" height="20" as="geometry" />
        </mxCell>
        <mxCell id="1cKoUGkLe3tbQsXoUSwH-122" value="&lt;font style=&quot;font-size: 10px&quot;&gt;timestamp&lt;/font&gt;" style="text;html=1;align=center;verticalAlign=middle;whiteSpace=wrap;rounded=0;" vertex="1" parent="1">
          <mxGeometry x="483" y="140" width="60" height="20" as="geometry" />
        </mxCell>
        <mxCell id="1cKoUGkLe3tbQsXoUSwH-125" value="&lt;font style=&quot;font-size: 10px&quot;&gt;discription&lt;/font&gt;" style="text;html=1;align=left;verticalAlign=middle;whiteSpace=wrap;rounded=0;" vertex="1" parent="1">
          <mxGeometry x="93" y="180" width="110" height="20" as="geometry" />
        </mxCell>
        <mxCell id="1cKoUGkLe3tbQsXoUSwH-126" value="&lt;font style=&quot;font-size: 10px&quot;&gt;string&lt;/font&gt;" style="text;html=1;align=center;verticalAlign=middle;whiteSpace=wrap;rounded=0;" vertex="1" parent="1">
          <mxGeometry x="203" y="180" width="60" height="20" as="geometry" />
        </mxCell>
        <mxCell id="1cKoUGkLe3tbQsXoUSwH-127" value="&lt;font style=&quot;font-size: 10px&quot;&gt;price&lt;/font&gt;" style="text;html=1;align=left;verticalAlign=middle;whiteSpace=wrap;rounded=0;" vertex="1" parent="1">
          <mxGeometry x="93" y="80" width="110" height="20" as="geometry" />
        </mxCell>
        <mxCell id="1cKoUGkLe3tbQsXoUSwH-128" value="&lt;font style=&quot;font-size: 10px&quot;&gt;int&lt;/font&gt;" style="text;html=1;align=center;verticalAlign=middle;whiteSpace=wrap;rounded=0;" vertex="1" parent="1">
          <mxGeometry x="203" y="80" width="60" height="20" as="geometry" />
        </mxCell>
        <mxCell id="1cKoUGkLe3tbQsXoUSwH-129" value="" style="fontSize=12;html=1;endArrow=ERoneToMany;rounded=0;fontColor=#3333FF;strokeColor=default;exitX=0;exitY=0.5;exitDx=0;exitDy=0;entryX=0;entryY=0.5;entryDx=0;entryDy=0;edgeStyle=orthogonalEdgeStyle;" edge="1" parent="1" source="1cKoUGkLe3tbQsXoUSwH-7" target="1cKoUGkLe3tbQsXoUSwH-97">
          <mxGeometry width="100" height="100" relative="1" as="geometry">
            <mxPoint x="173" y="412" as="sourcePoint" />
            <mxPoint x="273" y="312" as="targetPoint" />
            <Array as="points">
              <mxPoint x="30" y="382" />
              <mxPoint x="30" y="250" />
            </Array>
          </mxGeometry>
        </mxCell>
        <mxCell id="1cKoUGkLe3tbQsXoUSwH-131" value="" style="edgeStyle=entityRelationEdgeStyle;fontSize=12;html=1;endArrow=ERoneToMany;rounded=0;fontColor=#3333FF;strokeColor=default;exitX=1;exitY=0.5;exitDx=0;exitDy=0;entryX=0;entryY=0.5;entryDx=0;entryDy=0;" edge="1" parent="1" source="1cKoUGkLe3tbQsXoUSwH-88" target="1cKoUGkLe3tbQsXoUSwH-118">
          <mxGeometry width="100" height="100" relative="1" as="geometry">
            <mxPoint x="323" y="266.93" as="sourcePoint" />
            <mxPoint x="423" y="166.93" as="targetPoint" />
          </mxGeometry>
        </mxCell>
        <mxCell id="1cKoUGkLe3tbQsXoUSwH-136" value="&lt;font style=&quot;font-size: 25px&quot;&gt;Fashion Diary&lt;/font&gt;" style="text;html=1;strokeColor=none;fillColor=none;align=center;verticalAlign=middle;whiteSpace=wrap;rounded=0;fontSize=10;fontColor=#3333FF;" vertex="1" parent="1">
          <mxGeometry x="241" width="367" height="30" as="geometry" />
        </mxCell>
        <mxCell id="1cKoUGkLe3tbQsXoUSwH-137" value="dead_line" style="text;html=1;align=left;verticalAlign=middle;whiteSpace=wrap;rounded=0;" vertex="1" parent="1">
          <mxGeometry x="93" y="100" width="110" height="20" as="geometry" />
        </mxCell>
        <mxCell id="1cKoUGkLe3tbQsXoUSwH-138" value="date" style="text;html=1;align=center;verticalAlign=middle;whiteSpace=wrap;rounded=0;" vertex="1" parent="1">
          <mxGeometry x="203" y="100" width="60" height="20" as="geometry" />
        </mxCell>
        <mxCell id="1cKoUGkLe3tbQsXoUSwH-139" value="" style="shape=internalStorage;whiteSpace=wrap;html=1;backgroundOutline=1;" vertex="1" parent="1">
          <mxGeometry x="343" y="204.38" width="200" height="104.93" as="geometry" />
        </mxCell>
        <mxCell id="1cKoUGkLe3tbQsXoUSwH-140" value="category" style="text;html=1;strokeColor=none;fillColor=none;align=center;verticalAlign=middle;whiteSpace=wrap;rounded=0;" vertex="1" parent="1">
          <mxGeometry x="363" y="204.38" width="180" height="20" as="geometry" />
        </mxCell>
        <mxCell id="1cKoUGkLe3tbQsXoUSwH-141" value="&lt;font style=&quot;font-size: 10px&quot; color=&quot;#FF3333&quot;&gt;id&lt;/font&gt;" style="text;html=1;align=left;verticalAlign=middle;whiteSpace=wrap;rounded=0;" vertex="1" parent="1">
          <mxGeometry x="373" y="224.38" width="110" height="20" as="geometry" />
        </mxCell>
        <mxCell id="1cKoUGkLe3tbQsXoUSwH-142" value="" style="endArrow=none;html=1;rounded=0;entryX=1;entryY=0;entryDx=0;entryDy=0;exitX=0.7;exitY=1;exitDx=0;exitDy=0;exitPerimeter=0;" edge="1" parent="1" source="1cKoUGkLe3tbQsXoUSwH-139" target="1cKoUGkLe3tbQsXoUSwH-141">
          <mxGeometry width="50" height="50" relative="1" as="geometry">
            <mxPoint x="453" y="274.38" as="sourcePoint" />
            <mxPoint x="503" y="224.38" as="targetPoint" />
          </mxGeometry>
        </mxCell>
        <mxCell id="1cKoUGkLe3tbQsXoUSwH-143" value="&lt;div style=&quot;font-size: 10px&quot; align=&quot;center&quot;&gt;&lt;font style=&quot;font-size: 10px&quot; color=&quot;#FF3333&quot;&gt;int&lt;/font&gt;&lt;/div&gt;" style="text;html=1;align=center;verticalAlign=middle;whiteSpace=wrap;rounded=0;" vertex="1" parent="1">
          <mxGeometry x="483" y="224.38" width="60" height="20" as="geometry" />
        </mxCell>
        <mxCell id="1cKoUGkLe3tbQsXoUSwH-144" value="&lt;font style=&quot;font-size: 10px&quot; color=&quot;#FF3333&quot;&gt;PK&lt;/font&gt;" style="text;html=1;align=left;verticalAlign=middle;whiteSpace=wrap;rounded=0;" vertex="1" parent="1">
          <mxGeometry x="343" y="224.38" width="20" height="20" as="geometry" />
        </mxCell>
        <mxCell id="1cKoUGkLe3tbQsXoUSwH-145" value="name" style="text;html=1;align=left;verticalAlign=middle;whiteSpace=wrap;rounded=0;" vertex="1" parent="1">
          <mxGeometry x="373" y="244.38" width="110" height="20" as="geometry" />
        </mxCell>
        <mxCell id="1cKoUGkLe3tbQsXoUSwH-146" value="&lt;font style=&quot;font-size: 10px&quot;&gt;string&lt;/font&gt;" style="text;html=1;align=center;verticalAlign=middle;whiteSpace=wrap;rounded=0;" vertex="1" parent="1">
          <mxGeometry x="483" y="244.38" width="60" height="20" as="geometry" />
        </mxCell>
        <mxCell id="1cKoUGkLe3tbQsXoUSwH-151" style="edgeStyle=orthogonalEdgeStyle;rounded=0;orthogonalLoop=1;jettySize=auto;html=1;exitX=0.5;exitY=1;exitDx=0;exitDy=0;fontSize=10;fontColor=#000000;" edge="1" parent="1" source="1cKoUGkLe3tbQsXoUSwH-139" target="1cKoUGkLe3tbQsXoUSwH-139">
          <mxGeometry relative="1" as="geometry" />
        </mxCell>
        <mxCell id="1cKoUGkLe3tbQsXoUSwH-153" value="&lt;font style=&quot;font-size: 10px&quot;&gt;created_at&lt;/font&gt;" style="text;html=1;align=left;verticalAlign=middle;whiteSpace=wrap;rounded=0;" vertex="1" parent="1">
          <mxGeometry x="373" y="264.38" width="110" height="20" as="geometry" />
        </mxCell>
        <mxCell id="1cKoUGkLe3tbQsXoUSwH-154" value="&lt;font style=&quot;font-size: 10px&quot;&gt;timestamp&lt;/font&gt;" style="text;html=1;align=center;verticalAlign=middle;whiteSpace=wrap;rounded=0;" vertex="1" parent="1">
          <mxGeometry x="483" y="264.38" width="60" height="20" as="geometry" />
        </mxCell>
        <mxCell id="1cKoUGkLe3tbQsXoUSwH-155" value="&lt;font style=&quot;font-size: 10px&quot;&gt;updated_at&lt;/font&gt;" style="text;html=1;align=left;verticalAlign=middle;whiteSpace=wrap;rounded=0;" vertex="1" parent="1">
          <mxGeometry x="373" y="284.38" width="110" height="20" as="geometry" />
        </mxCell>
        <mxCell id="1cKoUGkLe3tbQsXoUSwH-156" value="&lt;font style=&quot;font-size: 10px&quot;&gt;timestamp&lt;/font&gt;" style="text;html=1;align=center;verticalAlign=middle;whiteSpace=wrap;rounded=0;" vertex="1" parent="1">
          <mxGeometry x="483" y="284.38" width="60" height="20" as="geometry" />
        </mxCell>
        <mxCell id="1cKoUGkLe3tbQsXoUSwH-158" value="&lt;font style=&quot;font-size: 10px&quot; color=&quot;#3333FF&quot;&gt;category_id&lt;/font&gt;" style="text;html=1;align=left;verticalAlign=middle;whiteSpace=wrap;rounded=0;" vertex="1" parent="1">
          <mxGeometry x="93" y="260" width="110" height="20" as="geometry" />
        </mxCell>
        <mxCell id="1cKoUGkLe3tbQsXoUSwH-159" value="&lt;font style=&quot;font-size: 10px&quot; color=&quot;#3333FF&quot;&gt;int&lt;/font&gt;" style="text;html=1;align=center;verticalAlign=middle;whiteSpace=wrap;rounded=0;" vertex="1" parent="1">
          <mxGeometry x="203" y="260" width="60" height="20" as="geometry" />
        </mxCell>
        <mxCell id="1cKoUGkLe3tbQsXoUSwH-160" value="&lt;font style=&quot;font-size: 10px&quot; color=&quot;#3333FF&quot;&gt;FK&lt;/font&gt;" style="text;html=1;align=left;verticalAlign=middle;whiteSpace=wrap;rounded=0;" vertex="1" parent="1">
          <mxGeometry x="63" y="260" width="20" height="20" as="geometry" />
        </mxCell>
        <mxCell id="1cKoUGkLe3tbQsXoUSwH-161" value="" style="edgeStyle=entityRelationEdgeStyle;fontSize=12;html=1;endArrow=ERoneToMany;rounded=0;fontColor=#3333FF;strokeColor=default;entryX=1;entryY=0.5;entryDx=0;entryDy=0;exitX=0;exitY=0.5;exitDx=0;exitDy=0;" edge="1" parent="1" source="1cKoUGkLe3tbQsXoUSwH-144" target="1cKoUGkLe3tbQsXoUSwH-159">
          <mxGeometry width="100" height="100" relative="1" as="geometry">
            <mxPoint x="300" y="280" as="sourcePoint" />
            <mxPoint x="400" y="180" as="targetPoint" />
          </mxGeometry>
        </mxCell>
      </root>
    </mxGraphModel>
  </diagram>
</mxfile>
